<?xml version="1.0" encoding="utf-8"?>
<!-- Generator: Adobe Illustrator 24.3.0, SVG Export Plug-In . SVG Version: 6.00 Build 0)  -->
<svg version="1.1" id="Layer_1" xmlns="http://www.w3.org/2000/svg" xmlns:xlink="http://www.w3.org/1999/xlink" x="0px" y="0px"
	 viewBox="0 0 141.8 29.8" style="enable-background:new 0 0 141.8 29.8;" xml:space="preserve">
<style type="text/css">
	.st0{fill:#ffffff;}
	.st1{fill:#13A2AF;}
	.st2{fill:#FFFFFF;}
</style>
<path class="st0" d="M14.5,20.8H6.3l-2.1,5.5H0L8.6,4.8h3.6l8.6,21.6h-4.2L14.5,20.8z M10.4,9.9c-0.8,2.3-1.4,4.2-2,5.7l-0.7,1.9
	h5.6l-0.7-1.9C11.8,14.1,11.2,12.2,10.4,9.9L10.4,9.9z"/>
<path class="st0" d="M30.3,26.8c-1.6,0-2.9-0.3-3.9-0.8s-1.8-1.3-2.3-2.2c-0.3-0.5-0.5-1-0.6-1.6s-0.2-1.2-0.2-1.9v-9.6H27v9.2
	c0,0.5,0,1,0.1,1.4s0.2,0.7,0.3,1c0.3,0.5,0.6,0.8,1.1,1.1c0.5,0.2,1,0.3,1.7,0.3s1.3-0.1,1.8-0.4s0.9-0.7,1.1-1.2
	c0.2-0.5,0.4-1.2,0.4-2.1v-9.2h3.8v9.6c0,1.3-0.2,2.3-0.7,3.2c-0.2,0.5-0.6,0.9-1,1.4c-0.4,0.4-0.9,0.8-1.4,1
	c-0.5,0.3-1.1,0.5-1.8,0.7C31.8,26.7,31.1,26.8,30.3,26.8z"/>
<path class="st0" d="M48.1,23.7c0.4,0,0.7-0.1,1.1-0.1c0.3-0.1,0.7-0.2,1-0.4c0.3-0.2,0.6-0.3,0.8-0.5s0.4-0.4,0.6-0.6v-7.4
	c-0.5-0.4-1-0.7-1.5-0.9c-0.6-0.2-1.2-0.4-1.8-0.4c-0.4,0-0.8,0.1-1.3,0.2c-0.4,0.2-0.8,0.4-1.2,0.8c-0.4,0.4-0.7,0.9-0.9,1.6
	s-0.4,1.6-0.4,2.6c0,1.6,0.3,2.8,0.9,3.7C46,23.2,46.9,23.7,48.1,23.7z M40.6,18.8c0-1.4,0.2-2.6,0.6-3.7c0.4-1.1,0.9-2,1.5-2.7
	s1.4-1.3,2.2-1.6c0.8-0.4,1.7-0.5,2.6-0.5c0.4,0,0.8,0,1.2,0.1s0.7,0.2,1.1,0.3c0.3,0.1,0.6,0.3,0.9,0.4s0.6,0.3,0.8,0.5l0,0
	c0-0.2,0-0.5,0-0.9s0-0.8,0-1.3V3h3.8v18.7c0,1,0,1.9,0,2.7c0,0.7,0,1.4,0.1,2H52l-0.2-1.7h-0.1c-0.2,0.3-0.5,0.5-0.8,0.8
	s-0.7,0.5-1.1,0.7c-0.4,0.2-0.8,0.3-1.3,0.4s-1,0.2-1.5,0.2c-0.9,0-1.7-0.1-2.4-0.4c-0.8-0.3-1.5-0.8-2.1-1.4s-1.1-1.5-1.5-2.5
	C40.7,21.4,40.6,20.2,40.6,18.8z"/>
<path class="st0" d="M59.9,10.7h3.8v15.6h-3.8V10.7z M59.8,3h4v4.2h-4V3z"/>
<path class="st0" d="M77.6,26.3c-0.4,0.1-0.9,0.2-1.5,0.3c-0.6,0.1-1.1,0.1-1.7,0.1c-1.3,0-2.4-0.2-3.2-0.6c-0.8-0.4-1.4-1-1.8-1.8
	C69.1,23.7,69,22.9,69,22v-8.1h-2.9v-3.1H69V6.3h3.8v4.4h4.5v3.1h-4.5v7.6c0,0.6,0.1,1.1,0.3,1.3c0.3,0.5,1,0.7,1.9,0.7
	c0.4,0,0.9,0,1.3-0.1s0.8-0.2,1.2-0.3L77.6,26.3L77.6,26.3L77.6,26.3z"/>
<path class="st1" d="M83,29.8h48.6l10.2-15.1L131.5,0H83l10.2,14.7L83,29.8z"/>
<path class="st2" d="M99.8,8.2c1.1,1.6,1.9,2.8,2.3,3.5h0.1c0.6-1,1.4-2.1,2.3-3.4l3.3-4.7h4.8l-8,11.3l8.3,11.6h-4.8l-3.6-5.1
	c-0.9-1.3-1.7-2.4-2.4-3.6H102c-0.8,1.2-1.6,2.3-2.4,3.6L96,26.5h-4.7l8.3-11.6l-8-11.3h4.8L99.8,8.2z M122.3,17.5
	c-0.4,0-0.8,0-1.1,0c-0.4,0-0.7,0-1-0.1v8.9H116V3.5h6.6c1.1,0,2.1,0.1,2.9,0.1c0.8,0.1,1.6,0.2,2.2,0.4c1.6,0.5,2.8,1.2,3.6,2.3
	c0.8,1,1.3,2.4,1.3,4c0,1.1-0.2,2.1-0.7,3c-0.5,0.9-1.1,1.6-2,2.2c-0.9,0.6-1.9,1.1-3.2,1.4C125.4,17.3,124,17.5,122.3,17.5z
	 M120.2,13.9c0.2,0,0.5,0.1,0.9,0.1s0.8,0,1.2,0c1.1,0,2.1-0.1,2.8-0.3c0.8-0.2,1.4-0.4,1.8-0.8c0.5-0.3,0.8-0.7,1-1.2
	c0.2-0.5,0.3-1,0.3-1.5c0-0.7-0.2-1.3-0.5-1.7c-0.3-0.5-0.8-0.9-1.6-1.1c-0.4-0.1-0.9-0.2-1.5-0.3c-0.5-0.1-1.2-0.1-2-0.1h-2.4V13.9
	L120.2,13.9L120.2,13.9z"/>
</svg>
